<?xml version="1.0" standalone="no"?>
<!DOCTYPE svg PUBLIC "-//W3C//DTD SVG 20010904//EN"
 "http://www.w3.org/TR/2001/REC-SVG-20010904/DTD/svg10.dtd">
<svg version="1.0" xmlns="http://www.w3.org/2000/svg"
 viewBox="0 0 2600.000000 2600.000000"
 preserveAspectRatio="xMidYMid meet">
<metadata>
Created by potrace 1.15, written by Peter Selinger 2001-2017
</metadata>
<g transform="translate(0.000000,2600.000000) scale(0.100000,-0.100000)"
fill="#000000" stroke="none">
<path d="M11872 16369 c-77 -10 -199 -67 -297 -140 -101 -75 -351 -330 -489
-499 -65 -80 -245 -314 -399 -520 -155 -206 -335 -445 -401 -530 -263 -339
-500 -588 -660 -694 -134 -90 -130 -89 -376 -87 -809 7 -2517 -164 -3795 -379
-2378 -401 -3621 -938 -3572 -1544 3 -39 13 -92 22 -118 13 -37 14 -54 6 -85
-16 -55 -13 -200 4 -266 133 -510 1035 -988 2579 -1367 1333 -327 2941 -544
4616 -622 287 -13 1282 -14 1493 -1 l137 8 48 -34 c69 -50 228 -212 313 -321
114 -145 185 -248 400 -580 109 -168 237 -361 286 -430 98 -139 265 -316 329
-348 121 -61 211 -48 300 44 281 287 324 936 93 1396 -82 163 -210 311 -332
382 -37 21 -67 39 -67 40 0 0 71 -2 157 -6 453 -18 1991 -5 2623 23 140 6 272
12 293 13 l38 1 113 -176 c131 -204 290 -429 413 -585 125 -158 387 -415 501
-493 260 -176 471 -207 676 -98 84 44 227 188 305 307 69 106 173 312 249 495
28 66 86 194 130 283 101 205 132 294 139 397 4 67 1 90 -17 138 -39 103 -164
215 -347 309 -34 18 -63 36 -63 39 0 6 29 13 275 69 1185 268 2339 175 3487
-279 337 -134 658 -288 1129 -541 529 -286 701 -360 834 -360 84 0 119 16 185
86 94 100 138 239 125 399 -8 107 -33 227 -115 557 -164 657 -206 988 -197
1533 9 507 55 753 257 1368 121 370 145 473 137 587 -6 99 -35 159 -112 235
-122 121 -241 170 -394 163 -177 -9 -363 -91 -771 -338 -628 -381 -786 -472
-1054 -600 -622 -300 -1212 -461 -1866 -511 -195 -15 -702 -6 -895 15 -264 29
-624 91 -810 139 l-49 13 44 31 c77 52 143 81 355 153 113 39 218 78 233 87
91 57 108 104 67 189 -37 75 -145 183 -220 220 -53 26 -70 29 -150 28 -236 -2
-585 -172 -1069 -522 l-89 -64 -536 92 c-1328 227 -2448 410 -3031 495 -411
60 -371 48 -325 95 74 75 199 126 540 216 221 58 295 98 295 157 0 17 -16 56
-39 91 -21 34 -151 288 -288 566 -317 638 -469 906 -673 1179 -186 249 -387
427 -542 480 -73 26 -113 30 -186 20z"/>
</g>
</svg>
